<mxfile host="65bd71144e" modified="2020-11-23T13:50:19.007Z" agent="5.0 (Windows NT 10.0; Win64; x64) AppleWebKit/537.36 (KHTML, like Gecko) Code/1.50.1 Chrome/83.0.4103.122 Electron/9.2.1 Safari/537.36" etag="S-awi_uIRhz0zkUCtblh" version="13.6.5">
    <diagram id="BVylWG0VrOBSJoDhUhGY" name="Page-1">
        <mxGraphModel dx="1122" dy="480" grid="0" gridSize="10" guides="1" tooltips="1" connect="1" arrows="1" fold="1" page="0" pageScale="1" pageWidth="827" pageHeight="1169" math="0" shadow="0">
            <root>
                <mxCell id="0"/>
                <mxCell id="1" parent="0"/>
                <mxCell id="V8HJCmb-Zh1GrgwlRxE_-1" value="Users" style="shape=table;startSize=30;container=1;collapsible=1;childLayout=tableLayout;fixedRows=1;rowLines=0;fontStyle=1;align=center;resizeLast=1;" parent="1" vertex="1">
                    <mxGeometry x="-200" y="425" width="180" height="130" as="geometry"/>
                </mxCell>
                <mxCell id="V8HJCmb-Zh1GrgwlRxE_-2" value="" style="shape=partialRectangle;collapsible=0;dropTarget=0;pointerEvents=0;fillColor=none;top=0;left=0;bottom=1;right=0;points=[[0,0.5],[1,0.5]];portConstraint=eastwest;" parent="V8HJCmb-Zh1GrgwlRxE_-1" vertex="1">
                    <mxGeometry y="30" width="180" height="30" as="geometry"/>
                </mxCell>
                <mxCell id="V8HJCmb-Zh1GrgwlRxE_-3" value="PK" style="shape=partialRectangle;connectable=0;fillColor=none;top=0;left=0;bottom=0;right=0;fontStyle=1;overflow=hidden;" parent="V8HJCmb-Zh1GrgwlRxE_-2" vertex="1">
                    <mxGeometry width="30" height="30" as="geometry"/>
                </mxCell>
                <mxCell id="V8HJCmb-Zh1GrgwlRxE_-4" value="UserID" style="shape=partialRectangle;connectable=0;fillColor=none;top=0;left=0;bottom=0;right=0;align=left;spacingLeft=6;fontStyle=5;overflow=hidden;" parent="V8HJCmb-Zh1GrgwlRxE_-2" vertex="1">
                    <mxGeometry x="30" width="150" height="30" as="geometry"/>
                </mxCell>
                <mxCell id="V8HJCmb-Zh1GrgwlRxE_-5" value="" style="shape=partialRectangle;collapsible=0;dropTarget=0;pointerEvents=0;fillColor=none;top=0;left=0;bottom=0;right=0;points=[[0,0.5],[1,0.5]];portConstraint=eastwest;" parent="V8HJCmb-Zh1GrgwlRxE_-1" vertex="1">
                    <mxGeometry y="60" width="180" height="30" as="geometry"/>
                </mxCell>
                <mxCell id="V8HJCmb-Zh1GrgwlRxE_-6" value="" style="shape=partialRectangle;connectable=0;fillColor=none;top=0;left=0;bottom=0;right=0;editable=1;overflow=hidden;" parent="V8HJCmb-Zh1GrgwlRxE_-5" vertex="1">
                    <mxGeometry width="30" height="30" as="geometry"/>
                </mxCell>
                <mxCell id="V8HJCmb-Zh1GrgwlRxE_-7" value="login" style="shape=partialRectangle;connectable=0;fillColor=none;top=0;left=0;bottom=0;right=0;align=left;spacingLeft=6;overflow=hidden;" parent="V8HJCmb-Zh1GrgwlRxE_-5" vertex="1">
                    <mxGeometry x="30" width="150" height="30" as="geometry"/>
                </mxCell>
                <mxCell id="V8HJCmb-Zh1GrgwlRxE_-11" value="" style="shape=partialRectangle;collapsible=0;dropTarget=0;pointerEvents=0;fillColor=none;top=0;left=0;bottom=0;right=0;points=[[0,0.5],[1,0.5]];portConstraint=eastwest;" parent="V8HJCmb-Zh1GrgwlRxE_-1" vertex="1">
                    <mxGeometry y="90" width="180" height="30" as="geometry"/>
                </mxCell>
                <mxCell id="V8HJCmb-Zh1GrgwlRxE_-12" value="" style="shape=partialRectangle;connectable=0;fillColor=none;top=0;left=0;bottom=0;right=0;editable=1;overflow=hidden;" parent="V8HJCmb-Zh1GrgwlRxE_-11" vertex="1">
                    <mxGeometry width="30" height="30" as="geometry"/>
                </mxCell>
                <mxCell id="V8HJCmb-Zh1GrgwlRxE_-13" value="JoinDate" style="shape=partialRectangle;connectable=0;fillColor=none;top=0;left=0;bottom=0;right=0;align=left;spacingLeft=6;overflow=hidden;" parent="V8HJCmb-Zh1GrgwlRxE_-11" vertex="1">
                    <mxGeometry x="30" width="150" height="30" as="geometry"/>
                </mxCell>
                <mxCell id="V8HJCmb-Zh1GrgwlRxE_-14" value="Social" style="shape=table;startSize=30;container=1;collapsible=1;childLayout=tableLayout;fixedRows=1;rowLines=0;fontStyle=1;align=center;resizeLast=1;" parent="1" vertex="1">
                    <mxGeometry x="330" y="445" width="180" height="120" as="geometry">
                        <mxRectangle x="330" y="445" width="62" height="30" as="alternateBounds"/>
                    </mxGeometry>
                </mxCell>
                <mxCell id="V8HJCmb-Zh1GrgwlRxE_-15" value="" style="shape=partialRectangle;collapsible=0;dropTarget=0;pointerEvents=0;fillColor=none;top=0;left=0;bottom=1;right=0;points=[[0,0.5],[1,0.5]];portConstraint=eastwest;" parent="V8HJCmb-Zh1GrgwlRxE_-14" vertex="1">
                    <mxGeometry y="30" width="180" height="30" as="geometry"/>
                </mxCell>
                <mxCell id="V8HJCmb-Zh1GrgwlRxE_-16" value="PK" style="shape=partialRectangle;connectable=0;fillColor=none;top=0;left=0;bottom=0;right=0;fontStyle=1;overflow=hidden;" parent="V8HJCmb-Zh1GrgwlRxE_-15" vertex="1">
                    <mxGeometry width="30" height="30" as="geometry"/>
                </mxCell>
                <mxCell id="V8HJCmb-Zh1GrgwlRxE_-17" value="SocialID" style="shape=partialRectangle;connectable=0;fillColor=none;top=0;left=0;bottom=0;right=0;align=left;spacingLeft=6;fontStyle=5;overflow=hidden;" parent="V8HJCmb-Zh1GrgwlRxE_-15" vertex="1">
                    <mxGeometry x="30" width="150" height="30" as="geometry"/>
                </mxCell>
                <mxCell id="V8HJCmb-Zh1GrgwlRxE_-18" value="" style="shape=partialRectangle;collapsible=0;dropTarget=0;pointerEvents=0;fillColor=none;top=0;left=0;bottom=0;right=0;points=[[0,0.5],[1,0.5]];portConstraint=eastwest;" parent="V8HJCmb-Zh1GrgwlRxE_-14" vertex="1">
                    <mxGeometry y="60" width="180" height="30" as="geometry"/>
                </mxCell>
                <mxCell id="V8HJCmb-Zh1GrgwlRxE_-19" value="" style="shape=partialRectangle;connectable=0;fillColor=none;top=0;left=0;bottom=0;right=0;editable=1;overflow=hidden;" parent="V8HJCmb-Zh1GrgwlRxE_-18" vertex="1">
                    <mxGeometry width="30" height="30" as="geometry"/>
                </mxCell>
                <mxCell id="V8HJCmb-Zh1GrgwlRxE_-20" value="Url" style="shape=partialRectangle;connectable=0;fillColor=none;top=0;left=0;bottom=0;right=0;align=left;spacingLeft=6;overflow=hidden;" parent="V8HJCmb-Zh1GrgwlRxE_-18" vertex="1">
                    <mxGeometry x="30" width="150" height="30" as="geometry"/>
                </mxCell>
                <mxCell id="V8HJCmb-Zh1GrgwlRxE_-21" value="" style="shape=partialRectangle;collapsible=0;dropTarget=0;pointerEvents=0;fillColor=none;top=0;left=0;bottom=0;right=0;points=[[0,0.5],[1,0.5]];portConstraint=eastwest;" parent="V8HJCmb-Zh1GrgwlRxE_-14" vertex="1">
                    <mxGeometry y="90" width="180" height="30" as="geometry"/>
                </mxCell>
                <mxCell id="V8HJCmb-Zh1GrgwlRxE_-22" value="" style="shape=partialRectangle;connectable=0;fillColor=none;top=0;left=0;bottom=0;right=0;editable=1;overflow=hidden;" parent="V8HJCmb-Zh1GrgwlRxE_-21" vertex="1">
                    <mxGeometry width="30" height="30" as="geometry"/>
                </mxCell>
                <mxCell id="V8HJCmb-Zh1GrgwlRxE_-23" value="Name" style="shape=partialRectangle;connectable=0;fillColor=none;top=0;left=0;bottom=0;right=0;align=left;spacingLeft=6;overflow=hidden;" parent="V8HJCmb-Zh1GrgwlRxE_-21" vertex="1">
                    <mxGeometry x="30" width="150" height="30" as="geometry"/>
                </mxCell>
                <mxCell id="V8HJCmb-Zh1GrgwlRxE_-53" value="Logins" style="shape=table;startSize=30;container=1;collapsible=1;childLayout=tableLayout;fixedRows=1;rowLines=0;fontStyle=1;align=center;resizeLast=1;" parent="1" vertex="1">
                    <mxGeometry x="60" y="425" width="180" height="190" as="geometry"/>
                </mxCell>
                <mxCell id="V8HJCmb-Zh1GrgwlRxE_-54" value="" style="shape=partialRectangle;collapsible=0;dropTarget=0;pointerEvents=0;fillColor=none;top=0;left=0;bottom=1;right=0;points=[[0,0.5],[1,0.5]];portConstraint=eastwest;" parent="V8HJCmb-Zh1GrgwlRxE_-53" vertex="1">
                    <mxGeometry y="30" width="180" height="30" as="geometry"/>
                </mxCell>
                <mxCell id="V8HJCmb-Zh1GrgwlRxE_-55" value="PK" style="shape=partialRectangle;connectable=0;fillColor=none;top=0;left=0;bottom=0;right=0;fontStyle=1;overflow=hidden;" parent="V8HJCmb-Zh1GrgwlRxE_-54" vertex="1">
                    <mxGeometry width="30" height="30" as="geometry"/>
                </mxCell>
                <mxCell id="V8HJCmb-Zh1GrgwlRxE_-56" value="LoginID" style="shape=partialRectangle;connectable=0;fillColor=none;top=0;left=0;bottom=0;right=0;align=left;spacingLeft=6;fontStyle=5;overflow=hidden;" parent="V8HJCmb-Zh1GrgwlRxE_-54" vertex="1">
                    <mxGeometry x="30" width="150" height="30" as="geometry"/>
                </mxCell>
                <mxCell id="V8HJCmb-Zh1GrgwlRxE_-66" value="" style="shape=partialRectangle;collapsible=0;dropTarget=0;pointerEvents=0;fillColor=none;top=0;left=0;bottom=0;right=0;points=[[0,0.5],[1,0.5]];portConstraint=eastwest;" parent="V8HJCmb-Zh1GrgwlRxE_-53" vertex="1">
                    <mxGeometry y="60" width="180" height="30" as="geometry"/>
                </mxCell>
                <mxCell id="V8HJCmb-Zh1GrgwlRxE_-67" value="FK" style="shape=partialRectangle;connectable=0;fillColor=none;top=0;left=0;bottom=0;right=0;fontStyle=0;overflow=hidden;" parent="V8HJCmb-Zh1GrgwlRxE_-66" vertex="1">
                    <mxGeometry width="30" height="30" as="geometry"/>
                </mxCell>
                <mxCell id="V8HJCmb-Zh1GrgwlRxE_-68" value="SocialId" style="shape=partialRectangle;connectable=0;fillColor=none;top=0;left=0;bottom=0;right=0;align=left;spacingLeft=6;fontStyle=0;overflow=hidden;" parent="V8HJCmb-Zh1GrgwlRxE_-66" vertex="1">
                    <mxGeometry x="30" width="150" height="30" as="geometry"/>
                </mxCell>
                <mxCell id="V8HJCmb-Zh1GrgwlRxE_-69" value="" style="shape=partialRectangle;collapsible=0;dropTarget=0;pointerEvents=0;fillColor=none;top=0;left=0;bottom=0;right=0;points=[[0,0.5],[1,0.5]];portConstraint=eastwest;" parent="V8HJCmb-Zh1GrgwlRxE_-53" vertex="1">
                    <mxGeometry y="90" width="180" height="30" as="geometry"/>
                </mxCell>
                <mxCell id="V8HJCmb-Zh1GrgwlRxE_-70" value="FK" style="shape=partialRectangle;connectable=0;fillColor=none;top=0;left=0;bottom=0;right=0;fontStyle=0;overflow=hidden;" parent="V8HJCmb-Zh1GrgwlRxE_-69" vertex="1">
                    <mxGeometry width="30" height="30" as="geometry"/>
                </mxCell>
                <mxCell id="V8HJCmb-Zh1GrgwlRxE_-71" value="UserId" style="shape=partialRectangle;connectable=0;fillColor=none;top=0;left=0;bottom=0;right=0;align=left;spacingLeft=6;fontStyle=0;overflow=hidden;" parent="V8HJCmb-Zh1GrgwlRxE_-69" vertex="1">
                    <mxGeometry x="30" width="150" height="30" as="geometry"/>
                </mxCell>
                <mxCell id="V8HJCmb-Zh1GrgwlRxE_-63" value="" style="shape=partialRectangle;collapsible=0;dropTarget=0;pointerEvents=0;fillColor=none;top=0;left=0;bottom=0;right=0;points=[[0,0.5],[1,0.5]];portConstraint=eastwest;" parent="V8HJCmb-Zh1GrgwlRxE_-53" vertex="1">
                    <mxGeometry y="120" width="180" height="30" as="geometry"/>
                </mxCell>
                <mxCell id="V8HJCmb-Zh1GrgwlRxE_-64" value="" style="shape=partialRectangle;connectable=0;fillColor=none;top=0;left=0;bottom=0;right=0;editable=1;overflow=hidden;" parent="V8HJCmb-Zh1GrgwlRxE_-63" vertex="1">
                    <mxGeometry width="30" height="30" as="geometry"/>
                </mxCell>
                <mxCell id="V8HJCmb-Zh1GrgwlRxE_-65" value="Nickname" style="shape=partialRectangle;connectable=0;fillColor=none;top=0;left=0;bottom=0;right=0;align=left;spacingLeft=6;overflow=hidden;" parent="V8HJCmb-Zh1GrgwlRxE_-63" vertex="1">
                    <mxGeometry x="30" width="150" height="30" as="geometry"/>
                </mxCell>
                <mxCell id="V8HJCmb-Zh1GrgwlRxE_-72" value="" style="shape=partialRectangle;collapsible=0;dropTarget=0;pointerEvents=0;fillColor=none;top=0;left=0;bottom=0;right=0;points=[[0,0.5],[1,0.5]];portConstraint=eastwest;" parent="V8HJCmb-Zh1GrgwlRxE_-53" vertex="1">
                    <mxGeometry y="150" width="180" height="30" as="geometry"/>
                </mxCell>
                <mxCell id="V8HJCmb-Zh1GrgwlRxE_-73" value="" style="shape=partialRectangle;connectable=0;fillColor=none;top=0;left=0;bottom=0;right=0;editable=1;overflow=hidden;" parent="V8HJCmb-Zh1GrgwlRxE_-72" vertex="1">
                    <mxGeometry width="30" height="30" as="geometry"/>
                </mxCell>
                <mxCell id="V8HJCmb-Zh1GrgwlRxE_-74" value="Url" style="shape=partialRectangle;connectable=0;fillColor=none;top=0;left=0;bottom=0;right=0;align=left;spacingLeft=6;overflow=hidden;" parent="V8HJCmb-Zh1GrgwlRxE_-72" vertex="1">
                    <mxGeometry x="30" width="150" height="30" as="geometry"/>
                </mxCell>
                <mxCell id="V8HJCmb-Zh1GrgwlRxE_-76" value="" style="endArrow=oval;html=1;startArrow=none;startFill=0;endFill=1;exitX=0;exitY=0.5;exitDx=0;exitDy=0;entryX=1;entryY=0.5;entryDx=0;entryDy=0;" parent="1" source="V8HJCmb-Zh1GrgwlRxE_-15" target="V8HJCmb-Zh1GrgwlRxE_-66" edge="1">
                    <mxGeometry width="50" height="50" relative="1" as="geometry">
                        <mxPoint x="260" y="480" as="sourcePoint"/>
                        <mxPoint x="310" y="430" as="targetPoint"/>
                        <Array as="points">
                            <mxPoint x="280" y="490"/>
                            <mxPoint x="280" y="500"/>
                        </Array>
                    </mxGeometry>
                </mxCell>
                <mxCell id="V8HJCmb-Zh1GrgwlRxE_-77" value="" style="endArrow=oval;html=1;startArrow=none;startFill=0;endFill=1;exitX=1;exitY=0.5;exitDx=0;exitDy=0;entryX=0;entryY=0.5;entryDx=0;entryDy=0;" parent="1" source="V8HJCmb-Zh1GrgwlRxE_-2" target="V8HJCmb-Zh1GrgwlRxE_-69" edge="1">
                    <mxGeometry width="50" height="50" relative="1" as="geometry">
                        <mxPoint x="340" y="500" as="sourcePoint"/>
                        <mxPoint x="230" y="510" as="targetPoint"/>
                        <Array as="points">
                            <mxPoint y="470"/>
                            <mxPoint y="530"/>
                        </Array>
                    </mxGeometry>
                </mxCell>
                <mxCell id="V8HJCmb-Zh1GrgwlRxE_-78" value="Data" style="shape=table;startSize=30;container=1;collapsible=1;childLayout=tableLayout;fixedRows=1;rowLines=0;fontStyle=1;align=center;resizeLast=1;" parent="1" vertex="1">
                    <mxGeometry x="54" y="170" width="180" height="190" as="geometry"/>
                </mxCell>
                <mxCell id="V8HJCmb-Zh1GrgwlRxE_-79" value="" style="shape=partialRectangle;collapsible=0;dropTarget=0;pointerEvents=0;fillColor=none;top=0;left=0;bottom=1;right=0;points=[[0,0.5],[1,0.5]];portConstraint=eastwest;" parent="V8HJCmb-Zh1GrgwlRxE_-78" vertex="1">
                    <mxGeometry y="30" width="180" height="30" as="geometry"/>
                </mxCell>
                <mxCell id="V8HJCmb-Zh1GrgwlRxE_-80" value="PK" style="shape=partialRectangle;connectable=0;fillColor=none;top=0;left=0;bottom=0;right=0;fontStyle=1;overflow=hidden;" parent="V8HJCmb-Zh1GrgwlRxE_-79" vertex="1">
                    <mxGeometry width="30" height="30" as="geometry"/>
                </mxCell>
                <mxCell id="V8HJCmb-Zh1GrgwlRxE_-81" value="DataID" style="shape=partialRectangle;connectable=0;fillColor=none;top=0;left=0;bottom=0;right=0;align=left;spacingLeft=6;fontStyle=5;overflow=hidden;" parent="V8HJCmb-Zh1GrgwlRxE_-79" vertex="1">
                    <mxGeometry x="30" width="150" height="30" as="geometry"/>
                </mxCell>
                <mxCell id="V8HJCmb-Zh1GrgwlRxE_-82" value="" style="shape=partialRectangle;collapsible=0;dropTarget=0;pointerEvents=0;fillColor=none;top=0;left=0;bottom=0;right=0;points=[[0,0.5],[1,0.5]];portConstraint=eastwest;" parent="V8HJCmb-Zh1GrgwlRxE_-78" vertex="1">
                    <mxGeometry y="60" width="180" height="30" as="geometry"/>
                </mxCell>
                <mxCell id="V8HJCmb-Zh1GrgwlRxE_-83" value="" style="shape=partialRectangle;connectable=0;fillColor=none;top=0;left=0;bottom=0;right=0;editable=1;overflow=hidden;" parent="V8HJCmb-Zh1GrgwlRxE_-82" vertex="1">
                    <mxGeometry width="30" height="30" as="geometry"/>
                </mxCell>
                <mxCell id="V8HJCmb-Zh1GrgwlRxE_-84" value="LoginID" style="shape=partialRectangle;connectable=0;fillColor=none;top=0;left=0;bottom=0;right=0;align=left;spacingLeft=6;overflow=hidden;" parent="V8HJCmb-Zh1GrgwlRxE_-82" vertex="1">
                    <mxGeometry x="30" width="150" height="30" as="geometry"/>
                </mxCell>
                <mxCell id="V8HJCmb-Zh1GrgwlRxE_-106" value="" style="shape=partialRectangle;collapsible=0;dropTarget=0;pointerEvents=0;fillColor=none;top=0;left=0;bottom=0;right=0;points=[[0,0.5],[1,0.5]];portConstraint=eastwest;" parent="V8HJCmb-Zh1GrgwlRxE_-78" vertex="1">
                    <mxGeometry y="90" width="180" height="30" as="geometry"/>
                </mxCell>
                <mxCell id="V8HJCmb-Zh1GrgwlRxE_-107" value="" style="shape=partialRectangle;connectable=0;fillColor=none;top=0;left=0;bottom=0;right=0;editable=1;overflow=hidden;" parent="V8HJCmb-Zh1GrgwlRxE_-106" vertex="1">
                    <mxGeometry width="30" height="30" as="geometry"/>
                </mxCell>
                <mxCell id="V8HJCmb-Zh1GrgwlRxE_-108" value="MarkedData" style="shape=partialRectangle;connectable=0;fillColor=none;top=0;left=0;bottom=0;right=0;align=left;spacingLeft=6;overflow=hidden;" parent="V8HJCmb-Zh1GrgwlRxE_-106" vertex="1">
                    <mxGeometry x="30" width="150" height="30" as="geometry"/>
                </mxCell>
                <mxCell id="V8HJCmb-Zh1GrgwlRxE_-85" value="" style="shape=partialRectangle;collapsible=0;dropTarget=0;pointerEvents=0;fillColor=none;top=0;left=0;bottom=0;right=0;points=[[0,0.5],[1,0.5]];portConstraint=eastwest;" parent="V8HJCmb-Zh1GrgwlRxE_-78" vertex="1">
                    <mxGeometry y="120" width="180" height="30" as="geometry"/>
                </mxCell>
                <mxCell id="V8HJCmb-Zh1GrgwlRxE_-86" value="" style="shape=partialRectangle;connectable=0;fillColor=none;top=0;left=0;bottom=0;right=0;editable=1;overflow=hidden;" parent="V8HJCmb-Zh1GrgwlRxE_-85" vertex="1">
                    <mxGeometry width="30" height="30" as="geometry"/>
                </mxCell>
                <mxCell id="V8HJCmb-Zh1GrgwlRxE_-87" value="TextData" style="shape=partialRectangle;connectable=0;fillColor=none;top=0;left=0;bottom=0;right=0;align=left;spacingLeft=6;overflow=hidden;" parent="V8HJCmb-Zh1GrgwlRxE_-85" vertex="1">
                    <mxGeometry x="30" width="150" height="30" as="geometry"/>
                </mxCell>
                <mxCell id="V8HJCmb-Zh1GrgwlRxE_-88" value="" style="shape=partialRectangle;collapsible=0;dropTarget=0;pointerEvents=0;fillColor=none;top=0;left=0;bottom=0;right=0;points=[[0,0.5],[1,0.5]];portConstraint=eastwest;" parent="V8HJCmb-Zh1GrgwlRxE_-78" vertex="1">
                    <mxGeometry y="150" width="180" height="30" as="geometry"/>
                </mxCell>
                <mxCell id="V8HJCmb-Zh1GrgwlRxE_-89" value="" style="shape=partialRectangle;connectable=0;fillColor=none;top=0;left=0;bottom=0;right=0;editable=1;overflow=hidden;" parent="V8HJCmb-Zh1GrgwlRxE_-88" vertex="1">
                    <mxGeometry width="30" height="30" as="geometry"/>
                </mxCell>
                <mxCell id="V8HJCmb-Zh1GrgwlRxE_-90" value="Date" style="shape=partialRectangle;connectable=0;fillColor=none;top=0;left=0;bottom=0;right=0;align=left;spacingLeft=6;overflow=hidden;" parent="V8HJCmb-Zh1GrgwlRxE_-88" vertex="1">
                    <mxGeometry x="30" width="150" height="30" as="geometry"/>
                </mxCell>
                <mxCell id="V8HJCmb-Zh1GrgwlRxE_-91" value="" style="endArrow=oval;html=1;startArrow=none;startFill=0;endFill=1;exitX=-0.011;exitY=0.289;exitDx=0;exitDy=0;entryX=0;entryY=0.5;entryDx=0;entryDy=0;exitPerimeter=0;" parent="1" source="V8HJCmb-Zh1GrgwlRxE_-54" target="V8HJCmb-Zh1GrgwlRxE_-82" edge="1">
                    <mxGeometry width="50" height="50" relative="1" as="geometry">
                        <mxPoint x="-10" y="480" as="sourcePoint"/>
                        <mxPoint x="70" y="540" as="targetPoint"/>
                        <Array as="points">
                            <mxPoint x="10" y="464"/>
                            <mxPoint x="10" y="245"/>
                        </Array>
                    </mxGeometry>
                </mxCell>
                <mxCell id="V8HJCmb-Zh1GrgwlRxE_-92" value="Results" style="shape=table;startSize=30;container=1;collapsible=1;childLayout=tableLayout;fixedRows=1;rowLines=0;fontStyle=1;align=center;resizeLast=1;" parent="1" vertex="1">
                    <mxGeometry x="330" y="170" width="176.23614501953142" height="157.29169209798187" as="geometry"/>
                </mxCell>
                <mxCell id="V8HJCmb-Zh1GrgwlRxE_-93" value="" style="shape=partialRectangle;collapsible=0;dropTarget=0;pointerEvents=0;fillColor=none;top=0;left=0;bottom=1;right=0;points=[[0,0.5],[1,0.5]];portConstraint=eastwest;" parent="V8HJCmb-Zh1GrgwlRxE_-92" vertex="1">
                    <mxGeometry y="30" width="176.23614501953142" height="30" as="geometry"/>
                </mxCell>
                <mxCell id="V8HJCmb-Zh1GrgwlRxE_-94" value="PK" style="shape=partialRectangle;connectable=0;fillColor=none;top=0;left=0;bottom=0;right=0;fontStyle=1;overflow=hidden;" parent="V8HJCmb-Zh1GrgwlRxE_-93" vertex="1">
                    <mxGeometry width="30" height="30" as="geometry"/>
                </mxCell>
                <mxCell id="V8HJCmb-Zh1GrgwlRxE_-95" value="ResultID" style="shape=partialRectangle;connectable=0;fillColor=none;top=0;left=0;bottom=0;right=0;align=left;spacingLeft=6;fontStyle=5;overflow=hidden;" parent="V8HJCmb-Zh1GrgwlRxE_-93" vertex="1">
                    <mxGeometry x="30" width="146.23614501953142" height="30" as="geometry"/>
                </mxCell>
                <mxCell id="V8HJCmb-Zh1GrgwlRxE_-96" value="" style="shape=partialRectangle;collapsible=0;dropTarget=0;pointerEvents=0;fillColor=none;top=0;left=0;bottom=0;right=0;points=[[0,0.5],[1,0.5]];portConstraint=eastwest;" parent="V8HJCmb-Zh1GrgwlRxE_-92" vertex="1">
                    <mxGeometry y="60" width="176.23614501953142" height="30" as="geometry"/>
                </mxCell>
                <mxCell id="V8HJCmb-Zh1GrgwlRxE_-97" value="" style="shape=partialRectangle;connectable=0;fillColor=none;top=0;left=0;bottom=0;right=0;editable=1;overflow=hidden;" parent="V8HJCmb-Zh1GrgwlRxE_-96" vertex="1">
                    <mxGeometry width="30" height="30" as="geometry"/>
                </mxCell>
                <mxCell id="V8HJCmb-Zh1GrgwlRxE_-98" value="DataId" style="shape=partialRectangle;connectable=0;fillColor=none;top=0;left=0;bottom=0;right=0;align=left;spacingLeft=6;overflow=hidden;" parent="V8HJCmb-Zh1GrgwlRxE_-96" vertex="1">
                    <mxGeometry x="30" width="146.23614501953142" height="30" as="geometry"/>
                </mxCell>
                <mxCell id="V8HJCmb-Zh1GrgwlRxE_-99" value="" style="shape=partialRectangle;collapsible=0;dropTarget=0;pointerEvents=0;fillColor=none;top=0;left=0;bottom=0;right=0;points=[[0,0.5],[1,0.5]];portConstraint=eastwest;" parent="V8HJCmb-Zh1GrgwlRxE_-92" vertex="1">
                    <mxGeometry y="90" width="176.23614501953142" height="30" as="geometry"/>
                </mxCell>
                <mxCell id="V8HJCmb-Zh1GrgwlRxE_-100" value="" style="shape=partialRectangle;connectable=0;fillColor=none;top=0;left=0;bottom=0;right=0;editable=1;overflow=hidden;" parent="V8HJCmb-Zh1GrgwlRxE_-99" vertex="1">
                    <mxGeometry width="30" height="30" as="geometry"/>
                </mxCell>
                <mxCell id="V8HJCmb-Zh1GrgwlRxE_-101" value="Methrics" style="shape=partialRectangle;connectable=0;fillColor=none;top=0;left=0;bottom=0;right=0;align=left;spacingLeft=6;overflow=hidden;" parent="V8HJCmb-Zh1GrgwlRxE_-99" vertex="1">
                    <mxGeometry x="30" width="146.23614501953142" height="30" as="geometry"/>
                </mxCell>
                <mxCell id="V8HJCmb-Zh1GrgwlRxE_-102" value="" style="shape=partialRectangle;collapsible=0;dropTarget=0;pointerEvents=0;fillColor=none;top=0;left=0;bottom=0;right=0;points=[[0,0.5],[1,0.5]];portConstraint=eastwest;" parent="V8HJCmb-Zh1GrgwlRxE_-92" vertex="1">
                    <mxGeometry y="120" width="176.23614501953142" height="27" as="geometry"/>
                </mxCell>
                <mxCell id="V8HJCmb-Zh1GrgwlRxE_-103" value="" style="shape=partialRectangle;connectable=0;fillColor=none;top=0;left=0;bottom=0;right=0;editable=1;overflow=hidden;" parent="V8HJCmb-Zh1GrgwlRxE_-102" vertex="1">
                    <mxGeometry width="30" height="27" as="geometry"/>
                </mxCell>
                <mxCell id="V8HJCmb-Zh1GrgwlRxE_-104" value="Result" style="shape=partialRectangle;connectable=0;fillColor=none;top=0;left=0;bottom=0;right=0;align=left;spacingLeft=6;overflow=hidden;" parent="V8HJCmb-Zh1GrgwlRxE_-102" vertex="1">
                    <mxGeometry x="30" width="146.23614501953142" height="27" as="geometry"/>
                </mxCell>
                <mxCell id="V8HJCmb-Zh1GrgwlRxE_-105" value="" style="endArrow=oval;html=1;startArrow=none;startFill=0;endFill=1;exitX=1;exitY=0.5;exitDx=0;exitDy=0;entryX=0;entryY=0.5;entryDx=0;entryDy=0;" parent="1" source="V8HJCmb-Zh1GrgwlRxE_-79" target="V8HJCmb-Zh1GrgwlRxE_-96" edge="1">
                    <mxGeometry width="50" height="50" relative="1" as="geometry">
                        <mxPoint x="340" y="500" as="sourcePoint"/>
                        <mxPoint x="250" y="510" as="targetPoint"/>
                        <Array as="points">
                            <mxPoint x="290" y="215"/>
                            <mxPoint x="290" y="245"/>
                        </Array>
                    </mxGeometry>
                </mxCell>
                <mxCell id="2" value="DataID" style="swimlane;startSize=23;" vertex="1" parent="1">
                    <mxGeometry x="63" y="800" width="146" height="122" as="geometry"/>
                </mxCell>
                <mxCell id="8" value="&lt;span style=&quot;text-align: left&quot;&gt;LoginID (F&lt;/span&gt;&lt;span style=&quot;font-weight: 700&quot;&gt;K)&lt;/span&gt;&lt;span style=&quot;text-align: left&quot;&gt;&lt;br&gt;&lt;/span&gt;&lt;span style=&quot;text-align: left&quot;&gt;MarkedData&lt;br&gt;&lt;/span&gt;&lt;span style=&quot;text-align: left&quot;&gt;TextData&lt;br&gt;&lt;/span&gt;&lt;span style=&quot;text-align: left&quot;&gt;Date&lt;/span&gt;&lt;span style=&quot;font-weight: 700 ; text-align: left&quot;&gt;&lt;br&gt;&lt;/span&gt;" style="text;html=1;align=center;verticalAlign=middle;resizable=0;points=[];autosize=1;" vertex="1" parent="2">
                    <mxGeometry x="32" y="37" width="79" height="60" as="geometry"/>
                </mxCell>
                <mxCell id="3" value="LoginID" style="swimlane;startSize=23;" vertex="1" parent="1">
                    <mxGeometry x="-113" y="802" width="114" height="112" as="geometry"/>
                </mxCell>
                <mxCell id="15" value="&lt;span style=&quot;text-align: left&quot;&gt;SocialId&lt;/span&gt;&lt;span style=&quot;text-align: left&quot;&gt;&amp;nbsp;(F&lt;/span&gt;&lt;span style=&quot;font-weight: 700&quot;&gt;K)&lt;/span&gt;&lt;span style=&quot;text-align: left&quot;&gt;&lt;br&gt;&lt;/span&gt;&lt;span style=&quot;text-align: left&quot;&gt;UserId&lt;/span&gt;&lt;span style=&quot;text-align: left&quot;&gt;&amp;nbsp;(F&lt;/span&gt;&lt;span style=&quot;font-weight: 700&quot;&gt;K)&lt;/span&gt;&lt;span style=&quot;text-align: left&quot;&gt;&lt;br&gt;&lt;/span&gt;&lt;span style=&quot;text-align: left&quot;&gt;Nickname&lt;br&gt;&lt;/span&gt;&lt;span style=&quot;text-align: left&quot;&gt;Url&lt;/span&gt;&lt;span style=&quot;text-align: left&quot;&gt;&lt;br&gt;&lt;/span&gt;" style="text;html=1;align=center;verticalAlign=middle;resizable=0;points=[];autosize=1;" vertex="1" parent="3">
                    <mxGeometry x="18" y="37" width="80" height="60" as="geometry"/>
                </mxCell>
                <mxCell id="4" value="ResultID" style="swimlane;startSize=23;" vertex="1" parent="1">
                    <mxGeometry x="325" y="840" width="139" height="106" as="geometry"/>
                </mxCell>
                <mxCell id="11" value="&lt;span style=&quot;text-align: left&quot;&gt;DataId&lt;br&gt;&lt;/span&gt;&lt;span style=&quot;text-align: left&quot;&gt;Methrics&lt;br&gt;&lt;/span&gt;&lt;span style=&quot;text-align: left&quot;&gt;Result&lt;/span&gt;&lt;span style=&quot;text-align: left&quot;&gt;&lt;br&gt;&lt;/span&gt;" style="text;html=1;align=center;verticalAlign=middle;resizable=0;points=[];autosize=1;" vertex="1" parent="4">
                    <mxGeometry x="40.620000000000005" y="41" width="55" height="46" as="geometry"/>
                </mxCell>
                <mxCell id="6" value="SocialID" style="swimlane;startSize=23;" vertex="1" parent="1">
                    <mxGeometry x="84" y="967" width="80" height="89" as="geometry"/>
                </mxCell>
                <mxCell id="13" value="&lt;span style=&quot;text-align: left&quot;&gt;Url&lt;br&gt;&lt;/span&gt;&lt;span style=&quot;text-align: left&quot;&gt;Name&lt;/span&gt;&lt;span style=&quot;text-align: left&quot;&gt;&lt;br&gt;&lt;/span&gt;" style="text;html=1;align=center;verticalAlign=middle;resizable=0;points=[];autosize=1;" vertex="1" parent="6">
                    <mxGeometry x="19" y="39" width="42" height="32" as="geometry"/>
                </mxCell>
                <mxCell id="7" value="UserID" style="swimlane;startSize=23;" vertex="1" parent="1">
                    <mxGeometry x="-113" y="967" width="114" height="80" as="geometry"/>
                </mxCell>
                <mxCell id="17" value="&lt;span style=&quot;text-align: left&quot;&gt;login&lt;br&gt;&lt;/span&gt;&lt;span style=&quot;text-align: left&quot;&gt;JoinDate&lt;/span&gt;&lt;span style=&quot;text-align: left&quot;&gt;&lt;br&gt;&lt;/span&gt;" style="text;html=1;align=center;verticalAlign=middle;resizable=0;points=[];autosize=1;" vertex="1" parent="7">
                    <mxGeometry x="28.5" y="38" width="57" height="32" as="geometry"/>
                </mxCell>
                <mxCell id="9" value="&lt;span style=&quot;color: rgb(240, 240, 240); font-family: helvetica; font-size: 12px; font-style: normal; font-weight: 700; letter-spacing: normal; text-align: center; text-indent: 0px; text-transform: none; word-spacing: 0px; background-color: rgb(42, 42, 42); display: inline; float: none;&quot;&gt;Data&lt;/span&gt;" style="text;whiteSpace=wrap;html=1;" vertex="1" parent="1">
                    <mxGeometry x="112.99882352941171" y="766.9970588235295" width="46" height="28" as="geometry"/>
                </mxCell>
                <mxCell id="10" value="&lt;span style=&quot;color: rgb(240, 240, 240); font-family: helvetica; font-size: 12px; font-style: normal; font-weight: 700; letter-spacing: normal; text-align: center; text-indent: 0px; text-transform: none; word-spacing: 0px; background-color: rgb(42, 42, 42); display: inline; float: none;&quot;&gt;Results&lt;/span&gt;" style="text;whiteSpace=wrap;html=1;" vertex="1" parent="1">
                    <mxGeometry x="365.5" y="800" width="63" height="28" as="geometry"/>
                </mxCell>
                <mxCell id="12" value="&lt;span style=&quot;color: rgb(240, 240, 240); font-family: helvetica; font-size: 12px; font-style: normal; font-weight: 700; letter-spacing: normal; text-align: center; text-indent: 0px; text-transform: none; word-spacing: 0px; background-color: rgb(42, 42, 42); display: inline; float: none;&quot;&gt;Social&lt;/span&gt;" style="text;whiteSpace=wrap;html=1;" vertex="1" parent="1">
                    <mxGeometry x="99" y="939" width="55" height="28" as="geometry"/>
                </mxCell>
                <mxCell id="14" value="&lt;span style=&quot;color: rgb(240, 240, 240); font-family: helvetica; font-size: 12px; font-style: normal; font-weight: 700; letter-spacing: normal; text-align: center; text-indent: 0px; text-transform: none; word-spacing: 0px; background-color: rgb(42, 42, 42); display: inline; float: none;&quot;&gt;Logins&lt;/span&gt;" style="text;whiteSpace=wrap;html=1;" vertex="1" parent="1">
                    <mxGeometry x="-85.5" y="772" width="59" height="28" as="geometry"/>
                </mxCell>
                <mxCell id="16" value="&lt;span style=&quot;color: rgb(240, 240, 240); font-family: helvetica; font-size: 12px; font-style: normal; font-weight: 700; letter-spacing: normal; text-align: center; text-indent: 0px; text-transform: none; word-spacing: 0px; background-color: rgb(42, 42, 42); display: inline; float: none;&quot;&gt;Users&lt;/span&gt;" style="text;whiteSpace=wrap;html=1;" vertex="1" parent="1">
                    <mxGeometry x="-76" y="936" width="53" height="28" as="geometry"/>
                </mxCell>
                <mxCell id="19" value="" style="endArrow=oval;html=1;startArrow=none;startFill=0;endFill=1;exitX=1;exitY=0.5;exitDx=0;exitDy=0;entryX=0;entryY=0.5;entryDx=0;entryDy=0;" edge="1" parent="1" source="2" target="4">
                    <mxGeometry width="50" height="50" relative="1" as="geometry">
                        <mxPoint x="218" y="862" as="sourcePoint"/>
                        <mxPoint x="314" y="892" as="targetPoint"/>
                        <Array as="points">
                            <mxPoint x="274" y="862"/>
                            <mxPoint x="274" y="892"/>
                        </Array>
                    </mxGeometry>
                </mxCell>
                <mxCell id="20" value="" style="endArrow=oval;html=1;startArrow=none;startFill=0;endFill=1;exitX=0;exitY=0.25;exitDx=0;exitDy=0;entryX=1;entryY=0.75;entryDx=0;entryDy=0;" edge="1" parent="1" source="6" target="3">
                    <mxGeometry width="50" height="50" relative="1" as="geometry">
                        <mxPoint x="276" y="1038" as="sourcePoint"/>
                        <mxPoint x="186" y="1048" as="targetPoint"/>
                        <Array as="points">
                            <mxPoint x="61" y="989"/>
                            <mxPoint x="34" y="989"/>
                            <mxPoint x="34" y="886"/>
                        </Array>
                    </mxGeometry>
                </mxCell>
                <mxCell id="21" value="" style="endArrow=oval;html=1;startArrow=none;startFill=0;endFill=1;entryX=0;entryY=0.25;entryDx=0;entryDy=0;exitX=1;exitY=0.25;exitDx=0;exitDy=0;" edge="1" parent="1" source="3" target="2">
                    <mxGeometry width="50" height="50" relative="1" as="geometry">
                        <mxPoint x="33" y="861" as="sourcePoint"/>
                        <mxPoint x="49.980000000000004" y="845" as="targetPoint"/>
                        <Array as="points">
                            <mxPoint x="33" y="831"/>
                        </Array>
                    </mxGeometry>
                </mxCell>
                <mxCell id="22" value="" style="endArrow=oval;html=1;startArrow=none;startFill=0;endFill=1;entryX=0;entryY=0.75;entryDx=0;entryDy=0;exitX=0;exitY=0.25;exitDx=0;exitDy=0;" edge="1" parent="1" source="7" target="3">
                    <mxGeometry width="50" height="50" relative="1" as="geometry">
                        <mxPoint x="-58" y="1074" as="sourcePoint"/>
                        <mxPoint x="49" y="1072" as="targetPoint"/>
                        <Array as="points">
                            <mxPoint x="-145" y="987"/>
                            <mxPoint x="-145" y="886"/>
                        </Array>
                    </mxGeometry>
                </mxCell>
            </root>
        </mxGraphModel>
    </diagram>
</mxfile>